<svg width="128" height="128" viewBox="0 0 512 512" fill="none" xmlns="http://www.w3.org/2000/svg">
<rect width="512" height="512" fill="white"/>
<path d="M32 102.046C32 63.3605 63.3605 32 102.046 32H409.954C448.639 32 480 63.3605 480 102.046V409.954C480 448.639 448.639 480 409.954 480H102.046C63.3605 480 32 448.639 32 409.954V102.046Z" fill="#6D7688"/>
<path d="M32 102.046C32 63.3605 63.3605 32 102.046 32H409.954C448.64 32 480 63.3605 480 102.046V351.583C480 390.268 448.64 421.629 409.954 421.629H102.046C63.3605 421.629 32 390.268 32 351.583V102.046Z" fill="#FFD938"/>
<path d="M164 245.055C164 206.37 195.36 175.01 234.046 175.01H276.365C315.05 175.01 346.41 206.37 346.41 245.055V268.404C346.41 307.089 315.05 338.45 276.365 338.45H234.046C195.36 338.45 164 307.089 164 268.404V245.055Z" fill="#6D7688"/>
<path d="M387 206C387 268.408 328.349 319 256 319C183.651 319 125 268.408 125 206C125 143.592 183.651 93 256 93C328.349 93 387 143.592 387 206Z" fill="#B72032"/>
<path d="M387 196.169C387 252.988 328.349 299.049 256 299.049C183.651 299.049 125 252.988 125 196.169C125 139.351 183.651 93.2899 256 93.2899C328.349 93.2899 387 139.351 387 196.169Z" fill="#DB2F44"/>
</svg>
